<?xml version="1.0" standalone="no"?>
<!DOCTYPE svg PUBLIC "-//W3C//DTD SVG 20010904//EN"
 "http://www.w3.org/TR/2001/REC-SVG-20010904/DTD/svg10.dtd">
<svg version="1.0" xmlns="http://www.w3.org/2000/svg"
 width="152pt" height="152pt" viewBox="0 0 152 152"
 preserveAspectRatio="xMidYMid meet">

<rect fill="#fff" fill-opacity="1.0" x="0" y="0" width="152" height="152"/>

<g transform="translate(0.0,152.0) scale(0.1,-0.1)" fill="#000" stroke="none">
<path d="m630 1447 c-155 -36 -210 -106 -210 -262 l0 -85 150 0 c124 0 150 -3 150 -14 0 -12 -40 -15 -247 -18 -281 -3 -302 -8 -356 -84 -75 -106 -76 -324 -3 -435 40 -60 93 -82 209 -87 l97 -4 0 -102 c1 -156 41 -217 173 -263 70 -24 262 -24 327 1 121 45 162 105 168 243 l4 92 -152 3 c-112 2 -154 6 -158 16 -3 9 47 12 230 12 132 0 249 5 271 11 47 13 102 60 128 110 31 62 45 178 31 260 -15 85 -39 136 -86 177 -45 39 -91 52 -188 52 l-78 0 0 86 c0 47 -5 106 -12 131 -15 61 -69 114 -144 143 -73 27 -223 36 -304 17z m282 -72 c61 -22 105 -71 113 -128 4 -24 5 -122 3 -219 -3 -169 -4 -177 -27 -202 l-23 -25 -222 -3 c-245 -3 -263 -7 -308 -70 -19 -27 -24 -48 -27 -121 l-3 -89 -93 4 c-111 4 -137 18 -175 94 -22 42 -25 62 -25 149 0 87 3 107 25 149 46 92 42 91 356 94 l274 3 0 74 0 75 -151 0 -151 0 4 65 c3 55 8 69 33 96 37 38 57 49 120 66 65 16 215 10 277 -12z m394 -391 c108 -80 108 -360 0 -437 -30 -21 -40 -22 -309 -25 l-278 -3 3 -72 3 -72 154 -3 154 -3 -6 -61 c-7 -77 -27 -105 -102 -143 -55 -27 -68 -30 -165 -30 -126 0 -190 19 -241 71 l-34 35 -3 214 -3 213 30 34 29 33 229 5 c251 5 257 7 295 69 16 26 23 56 26 119 l5 84 93 -4 c74 -2 98 -7 120 -24z"/>
<path d="m560 1290 c-24 -24 -25 -48 -4 -78 19 -27 64 -29 87 -4 24 26 21 68 -5 86 -30 21 -54 20 -78 -4z"/>
<path d="m872 333 c-24 -10 -34 -53 -18 -79 34 -50 106 -33 106 26 0 47 -41 72 -88 53z"/>
</g>
</svg>
